<?xml version="1.0" encoding="UTF-8"?>
<svg id="Layer_1" data-name="Layer 1" xmlns="http://www.w3.org/2000/svg" xmlns:xlink="http://www.w3.org/1999/xlink" viewBox="0 0 500 500">
  <defs>
    <style>
      .cls-1 {
        fill: #fff;
        font-family: PlusJakartaSans-ExtraBold, 'Plus Jakarta Sans';
        font-size: 125.88px;
        font-weight: 700;
      }

      .cls-2 {
        fill: url(#radial-gradient-3);
      }

      .cls-2, .cls-3 {
        fill-opacity: .7;
      }

      .cls-4 {
        fill: url(#radial-gradient-5);
      }

      .cls-5 {
        fill: url(#radial-gradient);
      }

      .cls-6 {
        fill: url(#radial-gradient-2);
      }

      .cls-7 {
        fill: url(#radial-gradient-4);
      }

      .cls-3 {
        fill: url(#linear-gradient);
      }
    </style>
    <radialGradient id="radial-gradient" cx="31.04" cy="494.05" fx="31.04" fy="494.05" r="12.39" gradientTransform="translate(27.32 16691.14) scale(13.48 -33.27)" gradientUnits="userSpaceOnUse">
      <stop offset="0" stop-color="#2563eb"/>
      <stop offset=".14" stop-color="#4a6eb5"/>
      <stop offset=".4" stop-color="#486db6"/>
      <stop offset=".5" stop-color="#446cbd"/>
      <stop offset=".57" stop-color="#3b69c9"/>
      <stop offset=".62" stop-color="#3066da"/>
      <stop offset=".66" stop-color="#2563eb"/>
      <stop offset=".7" stop-color="#2460e5"/>
      <stop offset=".74" stop-color="#215ad7"/>
      <stop offset=".79" stop-color="#1d4fbe"/>
      <stop offset=".85" stop-color="#18409c"/>
      <stop offset=".9" stop-color="#102d71"/>
      <stop offset=".96" stop-color="#08163c"/>
      <stop offset="1" stop-color="#020617"/>
    </radialGradient>
    <radialGradient id="radial-gradient-2" cx="6.28" cy="500.6" fx="6.28" fy="500.6" r="12.39" gradientTransform="translate(-15405.33 6162.12) rotate(68.15) scale(32.75 -33.12)" gradientUnits="userSpaceOnUse">
      <stop offset="0" stop-color="#2563eb"/>
      <stop offset=".17" stop-color="#2056cd"/>
      <stop offset=".53" stop-color="#133481"/>
      <stop offset="1" stop-color="#020617"/>
    </radialGradient>
    <linearGradient id="linear-gradient" x1="212.84" y1="299.29" x2="212.84" y2="2" gradientTransform="translate(0 502) scale(1 -1)" gradientUnits="userSpaceOnUse">
      <stop offset=".8" stop-color="#6864f6" stop-opacity="0"/>
      <stop offset="1" stop-color="#2563eb"/>
    </linearGradient>
    <radialGradient id="radial-gradient-3" cx="3.89" cy="521.25" fx="3.89" fy="521.25" r="12.39" gradientTransform="translate(-7061.25 -3059.87) rotate(113.33) scale(19.22 -15.43)" gradientUnits="userSpaceOnUse">
      <stop offset="0" stop-color="#fff"/>
      <stop offset=".69" stop-color="#2563eb" stop-opacity="0"/>
    </radialGradient>
    <radialGradient id="radial-gradient-4" cx="172.86" cy="98.39" fx="276.35" fy="136.2" r="110.19" gradientUnits="userSpaceOnUse">
      <stop offset="0" stop-color="#1933eb"/>
      <stop offset=".24" stop-color="#4a6eb5"/>
      <stop offset=".45" stop-color="#486db6"/>
      <stop offset=".53" stop-color="#446cbd"/>
      <stop offset=".58" stop-color="#3b69c9"/>
      <stop offset=".63" stop-color="#3066da"/>
      <stop offset=".66" stop-color="#2563eb"/>
      <stop offset=".7" stop-color="#2460e5"/>
      <stop offset=".74" stop-color="#215ad7"/>
      <stop offset=".79" stop-color="#1d4fbe"/>
      <stop offset=".85" stop-color="#18409c"/>
      <stop offset=".9" stop-color="#102d71"/>
      <stop offset=".96" stop-color="#08163c"/>
      <stop offset="1" stop-color="#020617"/>
    </radialGradient>
    <radialGradient id="radial-gradient-5" cx="350.16" cy="139.96" fx="350.16" fy="139.96" r="68.7" gradientTransform="translate(0 -50.84) scale(1 1.36)" xlink:href="#radial-gradient"/>
  </defs>
  <path class="cls-5" d="M225.23,227.48h148.65c41.05,0,74.32,33.28,74.32,74.32v123.87c0,41.05-33.28,74.32-74.32,74.32s-74.32-33.28-74.32-74.32v-123.87c0-41.05-33.28-74.32-74.32-74.32"/>
  <g>
    <path class="cls-6" d="M51.8,277.03c0-41.05,33.28-74.32,74.32-74.32h99.1c41.05,0,74.32,33.28,74.32,74.32v148.65c0,41.05,33.28,74.32,74.32,74.32h-198.2c-68.41,0-123.87-55.46-123.87-123.87v-99.1Z"/>
    <path class="cls-3" d="M51.8,277.03c0-41.05,33.28-74.32,74.32-74.32h99.1c41.05,0,74.32,33.28,74.32,74.32v148.65c0,41.05,33.28,74.32,74.32,74.32h-198.2c-68.41,0-123.87-55.46-123.87-123.87v-99.1Z"/>
    <path class="cls-2" d="M51.8,277.03c0-41.05,33.28-74.32,74.32-74.32h99.1c41.05,0,74.32,33.28,74.32,74.32v148.65c0,41.05,33.28,74.32,74.32,74.32h-198.2c-68.41,0-123.87-55.46-123.87-123.87v-99.1Z"/>
  </g>
  <text class="cls-1" transform="translate(81.77 381.52)"><tspan x="0" y="0">B</tspan></text>
  <path class="cls-7" d="M169.78.08c23.23-1.28,44.72,12.46,53.11,34.06,5.51,14.18,3.09,29.03,3.66,43.92,29.86,33.73,21.04,86.56-17.8,109.08-33.45,19.4-76.26,8.57-96.6-24.01-16.64-26.67-13.89-61.61,7.01-85.07.61-13.54-1.58-27.49,2.49-40.61C128.2,16.38,147.72,1.3,169.78.08ZM208.63,63.34c.3-10.19.31-19.52-5.04-28.49-14.21-23.84-51.33-22.24-63.08,3.03-3.84,8.27-3.59,16.51-3.42,25.46,21.7-12.81,49.84-12.86,71.54,0ZM171.39,98.45c-14.43,1.16-21.62,18.31-12.13,29.37,1.34,1.56,3.01,2.72,4.62,3.96l.03,20.9c1.25,11,16.67,11.02,17.9,0l.02-20.9c4.1-2.73,7.31-6.53,8.43-11.42,2.72-11.81-6.81-22.88-18.87-21.91Z"/>
  <path class="cls-4" d="M347.68,61.79c18.71-1.02,36.01,9.91,42.77,27.09,4.44,11.28,2.49,23.09,2.95,34.92,24.05,26.82,16.95,68.83-14.34,86.74-26.94,15.42-61.42,6.81-77.79-19.1-13.4-21.21-11.18-49,5.65-67.65.49-10.77-1.27-21.86,2.01-32.3,5.27-16.75,20.99-28.75,38.75-29.72ZM378.97,112.1c.24-8.11.25-15.52-4.06-22.66-11.44-18.96-41.34-17.69-50.8,2.41-3.09,6.57-2.89,13.13-2.76,20.25,17.48-10.19,40.14-10.22,57.61,0ZM348.98,140.02c-11.62.92-17.41,14.56-9.77,23.36,1.08,1.24,2.43,2.16,3.72,3.15l.02,16.62c1.01,8.75,13.42,8.76,14.41,0l.02-16.62c3.3-2.17,5.88-5.19,6.79-9.08,2.19-9.39-5.49-18.2-15.2-17.43Z"/>
</svg>